<svg width="60" height="60" viewBox="0 0 60 60" fill="none" xmlns="http://www.w3.org/2000/svg">
<path d="M18.75 45C20.8211 45 22.5 46.679 22.5 48.75C22.5 50.821 20.8211 52.5 18.75 52.5C16.6789 52.5 15 50.821 15 48.75C15 46.679 16.6789 45 18.75 45Z" stroke="#8B87A4" stroke-width="3.75"/>
<path d="M41.25 45.0002C43.321 45.0002 45 46.679 45 48.7502C45 50.8212 43.321 52.5002 41.25 52.5002C39.179 52.5002 37.5 50.8212 37.5 48.7502C37.5 46.679 39.179 45.0002 41.25 45.0002Z" stroke="#8B87A4" stroke-width="3.75"/>
<path d="M5 7.5L5.65302 7.7296C8.907 8.87363 10.534 9.44565 11.4646 10.8074C12.3952 12.1693 12.3952 13.9782 12.3952 17.5959V24.4C12.3952 31.754 12.5533 34.1807 14.7193 36.4655C16.8853 38.75 20.3714 38.75 27.3438 38.75H30M40.601 38.75C44.5035 38.75 46.4548 38.75 47.834 37.626C49.2133 36.502 49.6073 34.591 50.395 30.7687L51.6445 24.7069C52.5123 20.3592 52.946 18.1854 51.8363 16.7427C50.7265 15.3 46.9345 15.3 42.722 15.3H27.5588M12.3952 15.3H17.5" stroke="#8B87A4" stroke-width="3.75" stroke-linecap="round"/>
</svg>
